# xmcd
#
# Track frame offsets: 
#        150
#        11236
#        20212
#        29215
#        37957
#        49744
#        60578
#        69423
#        80935
#        90429
#        100970
#        108488
#        118765
#        129556
#        138871
#        150347
#        159592
#        169605
#
# Disc length: 2385 seconds
#
# Revision: 0
# Processed by: cddbd v1.5.2PL0 Copyright (c) Steve Scherf et al.
# Submitted via: ExactAudioCopyFreeDBPlugin 1.0
#
DISCID=f2094f12
DTITLE=Fats Domino - The Fats Domino Singles Album
DYEAR=2012
DGENRE=R&B
TTITLE0=Blueberry Hill
TTITLE1=Be My Guest
TTITLE2=My Girl Josephine
TTITLE3=I Hear You Knocking
TTITLE4=The Fat Man
TTITLE5=Blue Monday
TTITLE6=Walking to New Orleans
TTITLE7=Ain't That a Shame
TTITLE8=My Blue Heaven
TTITLE9=I Want to Walk You Home
TTITLE10=Whole Lotta Loving
TTITLE11=Country Boy
TTITLE12=Jambalaya (On the Bayou)
TTITLE13=I'm Ready
TTITLE14=Going to the River
TTITLE15=I'm Walkin'
TTITLE16=Goin' Home
TTITLE17=I'm Gonna Be a Wheel Someday
EXTD=
EXTT0=
EXTT1=
EXTT2=
EXTT3=
EXTT4=
EXTT5=
EXTT6=
EXTT7=
EXTT8=
EXTT9=
EXTT10=
EXTT11=
EXTT12=
EXTT13=
EXTT14=
EXTT15=
EXTT16=
EXTT17=
PLAYORDER=
